<?xml version="1.0" standalone="no"?>
<!DOCTYPE svg PUBLIC "-//W3C//DTD SVG 20010904//EN"
 "http://www.w3.org/TR/2001/REC-SVG-20010904/DTD/svg10.dtd">
<svg version="1.0" xmlns="http://www.w3.org/2000/svg"
 width="438.000000pt" height="438.000000pt" viewBox="0 0 438.000000 438.000000"
 preserveAspectRatio="xMidYMid meet">
<metadata>
Created by potrace 1.11, written by Peter Selinger 2001-2013
</metadata>
<g transform="translate(0.000000,438.000000) scale(0.100000,-0.100000)"
fill="#000000" stroke="none">
<path d="M1740 4106 c0 -10 -9 -16 -24 -16 -14 0 -28 -4 -31 -10 -3 -5 -13
-10 -22 -10 -22 0 -188 -138 -302 -251 -100 -99 -216 -253 -231 -308 -16 -60
-109 -169 -132 -155 -11 7 -58 -34 -58 -52 0 -19 60 -50 110 -57 25 -3 62 -13
83 -22 33 -13 38 -20 35 -43 -3 -25 -6 -27 -48 -26 -25 1 -77 6 -117 11 -71 9
-72 9 -130 -25 -67 -39 -128 -94 -151 -137 -21 -41 -29 -282 -12 -379 14 -80
63 -226 90 -271 13 -20 21 -61 26 -128 7 -100 17 -122 28 -62 7 37 22 53 37
38 6 -6 0 -31 -17 -67 -25 -55 -26 -63 -19 -164 8 -113 16 -146 25 -97 3 18
11 30 20 30 15 0 17 -5 19 -57 1 -18 7 -28 16 -28 21 0 30 -27 15 -45 -11 -14
-15 -14 -36 0 -32 20 -34 19 -34 -14 0 -46 48 -140 75 -147 22 -5 78 16 89 35
3 5 1 44 -5 87 -5 44 -9 111 -7 149 l3 70 26 -55 c30 -63 103 -150 157 -190
28 -20 40 -39 50 -76 8 -27 18 -58 22 -69 5 -11 11 -31 12 -45 4 -25 4 -25 21
7 21 39 70 66 163 89 75 19 150 49 159 64 8 13 42 13 50 0 9 -14 -32 -78 -53
-84 -10 -3 -32 -19 -50 -36 -26 -23 -31 -34 -23 -47 11 -22 -44 -143 -66 -143
-7 0 -13 -5 -13 -11 0 -7 -10 -9 -24 -5 -47 12 -43 -64 4 -79 24 -7 26 -23 5
-31 -10 -4 -15 -20 -15 -43 0 -44 -8 -55 -27 -40 -11 9 -13 1 -13 -46 l0 -57
-24 29 c-26 31 -76 133 -76 155 0 8 -13 24 -30 36 -19 15 -30 31 -30 47 0 14
-4 25 -9 25 -16 0 -25 -41 -24 -115 0 -44 -3 -63 -8 -50 -8 20 -8 20 -8 -1 -1
-11 4 -25 11 -32 9 -9 8 -16 -4 -29 -14 -15 -25 -75 -18 -93 1 -3 4 -22 5 -42
2 -20 11 -49 21 -63 9 -14 14 -28 11 -31 -6 -7 -67 83 -67 98 0 5 -10 22 -22
38 -22 30 -43 31 -33 1 3 -9 -2 -26 -10 -37 -8 -10 -15 -27 -15 -36 0 -9 -13
-30 -30 -46 -16 -17 -30 -34 -30 -39 0 -4 -9 -19 -20 -33 -19 -23 -21 -24 -31
-7 -10 17 -63 24 -72 9 -3 -4 6 -63 19 -132 36 -183 124 -354 232 -452 60 -54
217 -157 290 -190 67 -31 97 -31 43 -1 -17 10 -31 21 -31 25 0 11 33 18 68 13
31 -4 33 -3 20 12 -9 12 -9 15 0 9 17 -10 52 2 52 20 0 19 14 18 31 -2 11 -14
14 -14 23 -1 6 7 28 17 50 21 38 7 38 8 17 22 -17 12 -51 72 -51 90 0 2 18 21
41 44 38 38 44 40 102 40 34 1 80 5 102 10 22 5 63 14 90 20 28 6 57 20 67 31
9 10 19 19 22 19 8 0 89 40 146 72 124 70 160 88 173 88 8 0 21 10 30 22 12
18 18 20 27 11 10 -9 10 -21 -1 -57 -7 -24 -17 -42 -23 -39 -5 4 -7 -3 -4 -14
5 -18 -35 -114 -60 -146 -5 -7 -13 -23 -17 -37 -4 -14 -16 -35 -27 -47 -14
-14 -19 -30 -15 -44 5 -19 -31 -103 -52 -119 -3 -3 -7 -18 -8 -35 -4 -52 -12
-71 -35 -84 -21 -10 -19 -11 16 -7 54 7 276 156 276 185 0 4 -11 13 -25 19
-14 6 -25 18 -25 27 0 8 -4 15 -10 15 -5 0 -10 8 -10 18 0 10 -5 23 -11 29
-12 12 6 93 21 93 5 0 7 6 4 13 -8 22 78 359 101 391 8 12 24 35 36 51 15 21
11 19 -15 -9 -20 -21 -54 -48 -75 -60 -21 -12 -64 -38 -97 -59 -338 -220 -447
-256 -625 -209 -71 19 -149 65 -149 89 0 8 -4 12 -9 8 -5 -3 -12 -1 -16 5 -3
5 -1 10 6 10 7 0 9 10 5 30 -3 17 -1 30 4 30 16 0 0 49 -25 76 -18 19 -29 23
-49 18 -14 -3 -29 -10 -32 -15 -14 -23 -31 2 -38 54 -2 15 0 15 19 -3 19 -18
23 -19 28 -6 4 9 4 23 1 31 -4 10 0 15 11 15 10 0 15 -6 12 -12 -2 -7 -1 -22
3 -33 8 -19 8 -19 16 -1 4 11 2 27 -4 37 -25 40 -15 53 36 49 20 -1 22 3 22
45 0 36 5 51 23 66 17 15 19 20 9 27 -30 20 15 60 47 42 25 -13 123 0 128 17
3 7 -7 17 -20 22 -58 22 -35 55 28 41 22 -5 75 -10 118 -10 94 0 117 -10 117
-50 0 -38 20 -39 75 -5 22 13 46 25 53 25 19 0 133 91 127 100 -5 9 -54 16
-163 26 -58 5 -72 4 -70 -7 2 -7 -4 -14 -12 -15 -8 0 -17 -2 -20 -3 -3 -2 -38
-4 -78 -5 -64 -1 -75 2 -92 22 -11 12 -20 25 -20 30 0 4 -39 21 -87 38 -48 17
-88 35 -90 41 -2 6 19 16 47 22 28 6 61 17 73 25 12 8 42 18 67 22 31 4 52 14
67 32 24 28 64 32 110 9 31 -15 63 -12 63 7 0 14 -82 56 -110 56 -10 0 -31
-11 -46 -24 l-28 -23 -32 19 c-19 11 -46 43 -65 76 l-31 56 17 51 c10 27 26
68 35 90 10 22 23 81 30 130 7 50 17 96 22 103 12 14 72 16 98 2 21 -11 55
-108 65 -185 8 -63 43 -191 61 -227 7 -14 16 -43 18 -63 4 -27 16 -48 43 -74
66 -63 127 -108 166 -125 29 -12 42 -26 58 -61 12 -28 18 -54 13 -68 -5 -18
-4 -20 7 -9 9 8 14 35 13 75 0 34 5 65 10 69 6 4 48 8 93 8 l81 0 39 43 c47
54 102 85 114 65 6 -9 2 -14 -14 -16 -29 -5 -47 -22 -23 -22 13 0 16 -5 11
-17 -5 -10 -7 -27 -6 -38 1 -11 3 -35 3 -52 2 -40 6 -36 38 30 18 37 32 53 48
55 25 4 26 6 12 32 -7 13 -6 21 5 30 18 15 54 83 75 145 12 34 23 51 36 53 12
2 25 16 31 33 15 39 47 36 51 -4 3 -22 8 -28 25 -25 29 4 43 60 26 101 -8 19
-9 32 -3 34 40 13 84 47 108 83 24 36 30 55 31 104 2 58 5 66 63 146 112 156
163 266 197 430 19 90 19 133 0 197 -14 46 -20 53 -53 63 -20 7 -41 16 -46 21
-13 12 -53 12 -60 0 -3 -4 3 -16 14 -26 11 -10 17 -22 14 -26 -3 -5 2 -9 10
-9 26 0 40 -43 37 -107 -1 -13 -7 -23 -16 -23 -13 0 -21 -31 -16 -62 1 -11
-37 -30 -66 -33 -26 -3 -43 -20 -43 -42 0 -7 -9 -13 -19 -13 -14 0 -18 -5 -14
-21 5 -17 2 -20 -17 -17 -13 1 -26 9 -28 17 -3 10 0 12 12 8 20 -8 21 0 1 20
-9 8 -22 12 -30 9 -19 -7 -19 -35 0 -42 8 -4 12 -10 9 -15 -3 -5 6 -9 20 -9
17 0 26 -5 26 -16 0 -14 -3 -14 -15 -4 -13 11 -15 7 -15 -24 0 -32 -3 -36 -27
-36 -19 0 -24 -3 -16 -11 7 -7 6 -23 -4 -52 -8 -23 -19 -84 -25 -135 -6 -51
-14 -90 -17 -86 -3 3 -9 117 -12 252 -6 236 -7 249 -31 299 -13 28 -38 69 -53
89 -19 25 -25 39 -17 42 7 2 25 15 41 27 15 13 54 34 87 46 32 12 63 25 69 30
5 5 20 9 34 9 23 0 24 -1 6 -20 -10 -11 -13 -20 -7 -20 6 0 14 -9 17 -20 4
-13 15 -20 31 -20 19 0 26 6 31 30 3 17 9 30 13 30 10 0 7 44 -4 82 -6 20 -3
35 11 55 35 51 73 150 73 189 0 22 -7 66 -15 99 -8 33 -15 78 -15 100 0 22 -9
60 -21 84 -11 25 -17 51 -15 58 9 21 -29 120 -67 176 -26 39 -88 68 -126 61
-29 -6 -37 0 -104 69 -96 100 -296 217 -404 237 -58 10 -65 9 -85 -10 -19 -17
-21 -24 -10 -40 7 -11 12 -24 12 -30 0 -14 -44 -12 -59 3 -10 10 -11 9 -6 -5
9 -22 -14 -24 -53 -4 -15 7 -65 16 -112 18 -62 4 -96 11 -127 27 -27 14 -75
26 -140 33 -58 7 -111 19 -131 30 -18 10 -50 18 -71 18 -22 0 -41 4 -43 9 -1
5 -22 12 -45 16 -36 6 -43 4 -43 -9z m817 -169 c6 2 14 -1 18 -6 3 -6 23 -11
43 -11 20 -1 48 -7 62 -15 14 -8 41 -14 61 -15 38 0 89 -32 89 -55 0 -8 13
-21 28 -31 37 -21 57 -53 44 -66 -12 -12 -75 -13 -134 -3 -30 5 -39 3 -44 -9
-8 -20 -27 -16 -106 22 -32 15 -58 32 -58 39 0 15 36 27 78 26 17 -1 32 2 32
7 0 25 -22 59 -42 65 -43 13 -118 50 -118 58 0 4 8 4 18 -1 9 -5 22 -7 29 -5z
m-89 -264 c-4 -22 -22 -20 -26 1 -2 10 3 16 13 16 10 0 15 -7 13 -17z m273
-246 c-8 -8 -11 -5 -11 9 0 27 14 41 18 19 2 -9 -1 -22 -7 -28z m-86 12 c-10
-15 -25 -10 -19 6 4 8 10 12 15 9 5 -3 7 -10 4 -15z m5 -48 c0 -5 -6 -11 -13
-14 -9 -3 -12 -16 -9 -36 3 -23 9 -31 25 -31 20 0 20 0 1 -15 -18 -14 -18 -14
6 -15 18 0 21 -3 11 -9 -10 -6 -10 -10 -1 -16 6 -4 9 -13 6 -21 -6 -16 41 -44
62 -37 6 3 12 0 12 -6 0 -6 -3 -10 -7 -9 -11 3 -53 -25 -53 -34 0 -5 7 -8 15
-8 9 0 15 -10 15 -26 0 -14 -3 -23 -7 -21 -5 3 -14 -1 -20 -9 -8 -8 -9 -15 -3
-19 16 -10 12 -35 -5 -29 -11 5 -13 -1 -9 -28 4 -20 -2 -59 -16 -101 -23 -71
-36 -80 -77 -52 -24 17 -93 40 -146 50 -21 3 -52 15 -70 25 -17 10 -34 17 -39
14 -5 -3 -66 10 -136 30 -70 19 -144 38 -164 42 -59 10 -46 26 15 19 49 -5
112 -8 149 -5 10 1 21 6 24 12 5 7 1 9 -9 5 -32 -12 -17 13 23 39 44 29 51 49
20 59 -22 7 -25 22 -10 45 7 11 10 12 10 2 0 -8 6 -12 13 -9 6 2 11 11 9 21
-2 9 2 16 8 16 5 0 10 -5 10 -11 0 -5 5 -7 12 -3 9 6 9 9 0 12 -17 5 -15 32 3
32 9 0 18 6 21 14 7 18 94 19 94 0 0 -15 25 -25 46 -17 9 3 13 12 9 21 -5 13
-2 12 14 -2 18 -17 22 -17 43 -2 25 18 48 21 48 6 0 -5 8 -18 19 -29 18 -18
18 -18 16 9 -1 16 -9 36 -18 45 -18 18 -22 27 -9 23 4 -2 8 1 9 7 2 5 -6 10
-17 10 -27 0 -30 19 -4 23 12 2 30 12 40 23 18 20 34 25 34 10z m50 -26 c0 -8
5 -15 11 -15 5 0 8 -4 5 -8 -3 -5 -18 -7 -34 -4 -23 3 -29 8 -25 23 6 22 43
26 43 4z m-228 -45 c-2 -17 -10 -30 -18 -30 -17 0 -18 9 -2 42 16 34 26 28 20
-12z m-97 0 c3 -5 1 -10 -4 -10 -6 0 -11 5 -11 10 0 6 2 10 4 10 3 0 8 -4 11
-10z m335 -20 c0 -11 5 -20 10 -20 6 0 10 -4 10 -8 0 -23 -29 -5 -32 20 -3 15
-1 28 4 28 4 0 8 -9 8 -20z m-69 -564 c25 -8 65 -17 90 -19 69 -6 102 -23 94
-48 -5 -13 -3 -19 3 -15 13 8 36 -20 27 -34 -3 -6 3 -10 15 -10 25 0 60 -17
60 -29 0 -5 -10 -7 -22 -3 -18 4 -20 2 -16 -16 4 -12 2 -22 -3 -22 -12 0 -11
-47 1 -55 6 -3 10 -17 10 -30 0 -24 -20 -47 -20 -23 0 7 -5 5 -12 -6 -9 -16
-6 -22 13 -37 13 -10 21 -21 17 -24 -4 -4 -19 2 -34 14 -15 11 -34 21 -44 21
-9 0 -20 3 -24 7 -7 8 -68 33 -153 63 -63 22 -78 15 -112 -58 -23 -48 -24 -50
-60 -45 -26 4 -41 0 -50 -11 -12 -14 -18 -93 -10 -125 5 -17 -114 -80 -151
-81 -29 0 -130 -49 -137 -67 -3 -9 -15 -8 -46 4 -23 8 -77 17 -119 20 l-77 6
-35 67 c-48 91 -114 179 -170 226 -25 21 -46 42 -46 46 0 4 13 8 29 8 32 0 67
35 77 77 6 23 67 58 83 48 4 -2 37 -6 74 -9 60 -4 67 -2 72 15 7 20 7 20 21 2
13 -17 13 -17 14 0 0 11 9 21 20 24 11 3 17 9 14 14 -3 5 2 9 10 9 8 0 19 7
23 15 15 27 172 76 256 80 43 2 82 7 87 10 6 4 19 4 29 0 11 -3 22 -1 26 4 9
15 121 7 176 -13z m-1046 -56 c3 -5 0 -10 -8 -10 -20 0 -77 -30 -77 -41 0 -5
8 -9 19 -9 14 0 17 -6 13 -25 -5 -27 -29 -34 -38 -10 -4 8 -10 15 -16 15 -5 0
-7 -4 -4 -8 8 -14 -40 -35 -63 -29 -12 3 -24 0 -29 -7 -4 -7 -23 -12 -42 -12
-27 1 -34 -3 -32 -15 3 -19 -9 -25 -72 -34 -37 -6 -47 -4 -52 9 -3 9 -14 16
-23 16 -14 0 -14 2 -1 11 10 7 11 12 4 15 -6 3 -19 11 -29 18 -16 11 -14 15
26 38 43 25 75 35 134 45 17 3 44 11 60 18 50 22 57 23 142 24 45 1 85 -3 88
-9z m-5 -24 c0 -11 -19 -15 -25 -6 -3 5 1 10 9 10 9 0 16 -2 16 -4z m60 -26
c0 -5 -7 -10 -15 -10 -8 0 -15 5 -15 10 0 6 7 10 15 10 8 0 15 -4 15 -10z
m-207 -187 c-7 -2 -19 -2 -25 0 -7 3 -2 5 12 5 14 0 19 -2 13 -5z m1270 -32
c131 -52 197 -94 273 -173 81 -84 87 -122 7 -43 -97 95 -251 192 -355 225 -39
12 -60 30 -35 30 7 0 57 -17 110 -39z m-1217 -12 c151 -28 258 -136 287 -290
15 -81 -10 -203 -54 -265 -76 -105 -252 -166 -373 -129 -59 18 -69 19 -60 4
19 -31 -95 31 -130 70 -20 22 -20 22 0 14 15 -6 14 -1 -9 26 -15 19 -40 57
-55 85 -23 45 -26 63 -27 146 0 83 3 102 27 150 49 99 124 159 233 186 65 16
89 16 161 3z m166 -21 c27 -18 48 -36 48 -41 0 -4 -24 9 -52 29 -62 42 -64 44
-52 44 5 0 30 -15 56 -32z m1688 -58 c0 -5 -4 -10 -10 -10 -5 0 -10 5 -10 10
0 6 5 10 10 10 6 0 10 -4 10 -10z m-2325 -77 c11 -15 18 -37 16 -48 -3 -23
-21 -45 -21 -27 0 7 -11 30 -25 52 -14 22 -25 52 -25 67 l1 28 17 -22 c9 -12
26 -35 37 -50z m2294 9 c-11 -33 -23 -40 -34 -21 -6 8 34 58 43 54 1 -1 -3
-16 -9 -33z m-77 -87 c0 -5 -5 -11 -11 -13 -6 -2 -11 4 -11 13 0 9 5 15 11 13
6 -2 11 -8 11 -13z m-584 -39 c115 -45 161 -86 212 -186 35 -67 39 -195 10
-272 -46 -124 -157 -202 -302 -214 -62 -6 -84 -3 -131 14 -37 14 -57 18 -59
10 -3 -8 -11 -7 -28 2 -34 17 -110 92 -104 101 3 5 -6 25 -19 46 -41 67 -52
105 -52 188 0 91 26 162 84 228 90 101 253 136 389 83z m143 -16 c19 -15 31
-31 28 -35 -7 -6 -97 55 -98 67 -2 13 38 -5 70 -32z m-1795 -146 c-17 -16 -19
-31 -16 -100 1 -23 -3 -45 -9 -48 -5 -4 -10 2 -11 11 0 10 -3 42 -6 72 -5 46
-2 61 22 110 l29 56 3 -43 c2 -28 -2 -47 -12 -58z m1095 79 c13 -15 12 -15 -8
-4 -24 12 -29 21 -14 21 5 0 15 -7 22 -17z m1029 -72 c0 -16 -7 -34 -15 -41
-17 -14 -18 -8 -9 39 8 39 24 41 24 2z m30 -142 c0 -5 -4 -9 -10 -9 -5 0 -10
7 -10 16 0 8 5 12 10 9 6 -3 10 -10 10 -16z m-1370 -224 c0 -8 -7 -15 -15 -15
-16 0 -20 12 -8 23 11 12 23 8 23 -8z m1030 -145 c0 -5 -5 -10 -11 -10 -5 0
-7 5 -4 10 3 6 8 10 11 10 2 0 4 -4 4 -10z m0 -60 c0 -5 -5 -10 -11 -10 -5 0
-7 5 -4 10 3 6 8 10 11 10 2 0 4 -4 4 -10z m-1220 -30 c0 -7 7 -7 21 0 25 14
72 4 66 -13 -5 -17 -92 -26 -112 -11 -9 7 -14 17 -10 23 8 14 35 14 35 1z
m550 -160 c0 -5 -4 -10 -10 -10 -5 0 -10 5 -10 10 0 6 5 10 10 10 6 0 10 -4
10 -10z m-734 -187 c-10 -10 -19 5 -10 18 6 11 8 11 12 0 2 -7 1 -15 -2 -18z
m104 -163 c-6 -11 -21 -20 -33 -20 -20 0 -19 2 8 20 37 25 38 25 25 0z m80
-170 c0 -5 -7 -10 -15 -10 -8 0 -15 5 -15 10 0 6 7 10 15 10 8 0 15 -4 15 -10z
m10 -40 c0 -5 -4 -10 -9 -10 -6 0 -13 5 -16 10 -3 6 1 10 9 10 9 0 16 -4 16
-10z"/>
<path d="M2301 3164 c0 -11 3 -14 6 -6 3 7 2 16 -1 19 -3 4 -6 -2 -5 -13z"/>
<path d="M1258 2558 c9 -9 15 -9 24 0 9 9 7 12 -12 12 -19 0 -21 -3 -12 -12z"/>
<path d="M1379 2101 c-16 -16 -29 -37 -29 -45 0 -23 37 -56 63 -56 64 0 90 70
41 109 -35 27 -40 27 -75 -8z"/>
<path d="M2557 1872 c-26 -6 -50 -58 -37 -82 23 -44 89 -54 114 -18 22 31 20
51 -6 75 -27 24 -46 31 -71 25z"/>
<path d="M3010 3880 c0 -5 7 -10 15 -10 8 0 15 5 15 10 0 6 -7 10 -15 10 -8 0
-15 -4 -15 -10z"/>
<path d="M3140 2514 c0 -8 5 -12 10 -9 6 3 10 10 10 16 0 5 -4 9 -10 9 -5 0
-10 -7 -10 -16z"/>
<path d="M3150 2450 c0 -5 5 -10 10 -10 6 0 10 5 10 10 0 6 -4 10 -10 10 -5 0
-10 -4 -10 -10z"/>
<path d="M3030 1585 c-7 -8 -18 -15 -26 -15 -15 0 -44 -27 -44 -41 0 -11 60
-12 76 -1 13 8 24 72 13 72 -3 0 -12 -7 -19 -15z"/>
<path d="M3090 1504 c-21 -49 -26 -71 -9 -41 16 27 40 87 35 87 -3 0 -14 -21
-26 -46z"/>
<path d="M1300 1470 c0 -5 5 -10 10 -10 6 0 10 5 10 10 0 6 -4 10 -10 10 -5 0
-10 -4 -10 -10z"/>
<path d="M2918 1463 c7 -3 16 -2 19 1 4 3 -2 6 -13 5 -11 0 -14 -3 -6 -6z"/>
<path d="M1421 1423 c-20 -25 -31 -48 -30 -68 0 -16 3 -23 6 -15 3 8 21 36 39
61 19 26 34 49 34 53 0 16 -21 2 -49 -31z"/>
<path d="M3035 1394 c-10 -21 -24 -45 -32 -52 -19 -19 -17 -38 3 -21 20 17 56
87 52 101 -2 6 -12 -6 -23 -28z"/>
<path d="M897 984 c-10 -10 -9 -52 2 -58 11 -7 41 3 41 13 -1 14 -36 51 -43
45z"/>
<path d="M840 675 c0 -8 -4 -15 -9 -15 -6 0 -5 -14 0 -35 6 -19 8 -39 5 -43
-8 -14 28 -104 97 -243 59 -117 74 -140 117 -173 27 -21 54 -35 59 -32 11 7
142 -39 186 -66 60 -36 45 -17 -32 40 -144 108 -224 214 -324 432 -31 69 -62
124 -68 123 -6 -2 -11 4 -11 12 0 8 -4 15 -10 15 -5 0 -10 -7 -10 -15z"/>
<path d="M2536 372 c-3 -5 13 -21 35 -35 41 -27 45 -26 51 18 3 17 -3 20 -39
23 -22 2 -44 -1 -47 -6z"/>
</g>
</svg>
